<svg xmlns="http://www.w3.org/2000/svg" width="395.22692" height="715.04947" viewBox="0 0 395.22692 715.04947">
  <defs>
    <style>
      .a, .b {
        fill: #d1aa67;
      }

      .b {
        fill-rule: evenodd;
      }
    </style>
  </defs>
  <g>
    <path class="a" d="M394.15017,144.43149H386.349v-5.99c51.59686-3.608,86.39383-14.40354,130.78849-43.79614h6.00388v67.19286c-29.47418-6.99731-59.80592-3.71626-74.20932-1.40192C441.64871,145.18861,425.66622,144.43149,394.15017,144.43149Z" transform="translate(-350.40914 -7.65538)"/>
    <path class="a" d="M523.14139,559.068V527.3343c-14.70344-11.81688-37.39763-27.07784-68.99527-40.25606V559.068c0,37.21018,4.921,46.49725-25.4203,51.44512v7.12133c23.24271-1.44249,35.87384-2.16431,59.61846-2.16431,24.75764,0,37.52666.756,61.53618,2.26562V610.748C517.58072,605.85569,523.14139,596.87551,523.14139,559.068Z" transform="translate(-350.40914 -7.65538)"/>
    <ellipse class="a" cx="137.93044" cy="37.1952" rx="35.39505" ry="37.19518"/>
    <path class="b" d="M570.31877,517.43842a259.67475,259.67475,0,0,0-42.66886-45.15835c-96.83093-81.70314-77.03945-151.22964-.94514-235.80592-63.84737,38.68226-115.995,130.974-69.66208,202.039,14.509,18.92892,29.33473,30.6645,45.79415,47.12435,30.8271,30.82724,77.32778,66.50534,77.32778,114.87344h2.54581c.72425-8.70585,5.09146-13.30638,5.09146-25.45717.54536-19.739-5.48581-41.706-17.48312-57.61531" transform="translate(-350.40914 -7.65538)"/>
    <path class="b" d="M604.98541,570.59865c-2.88912,147.71455-172.09227,141.60851-216.25732,31.69308-1.65195-4.112-19.17668-43.00231-19.34184-43.85172,2.12618,18.91077,25.78907,134.17713-10.69843,134.98925,3.99973,14.98063,108.23434,29.27559,119.64828,29.27559,122.37025,0,244.22429-102.76267,168.05568-234.244-7.28079-12.5687-30.64107-36.53193-43.31565-43.23835,0,19.21354-1.764,47.37253-10.18307,64.91539C601.03855,525.53189,605.62179,545.0429,604.98541,570.59865Z" transform="translate(-350.40914 -7.65538)"/>
    <path class="b" d="M480.88176,330.66542c0,18.72889,4.85071,37.76911,14.99492,53.73946,7.53853,11.86746,18.16652,22.05867,27.96582,31.85825,10.13106,10.13077,19.36584,20.82077,29.28187,30.54248,5.42922,5.32321,8.486,11.29823,13.37325,17.17538,5.32606,6.40437,5.66883,14.685,10.34694,20.775,3.6744-29.66764,6.80315-55.58744-16.70788-79.32993-8.91488-9.003-18.29726-15.6273-26.76107-24.153-39.625-39.91586-37.17546-62.71906-25.76364-111.70483C496.82024,276.79493,480.88176,311.8075,480.88176,330.66542Z" transform="translate(-350.40914 -7.65538)"/>
    <path class="b" d="M529.23543,213.18559l7.72085-11.67929c-10.37752-5.20033-17.77175-10.2565-17.93192-23.268L491.06483,175.377c-110.47165,0-185.39337,151.04447-110.42879,237.71391,11.97505,13.8446,18.90121,21.22726,33.7084,32.4802,7.99858,6.07832,31.79436,24.21784,41.08044,26.38116-8.87073-13.24709-16.82133-17.34312-25.04553-34.77868C391.47206,354.69037,419.10883,217.54337,529.23543,213.18559Z" transform="translate(-350.40914 -7.65538)"/>
    <path class="b" d="M664.17324,328.11976c-3.20032-4.36793-10.18306-6.12362-10.18306-15.27425V302.66245c0-5.00988.65052-8.46853,2.5458-11.45554,0,17.02521-1.3902,34.367,15.27453,34.367h28.00268c-.22246,9.9829-7.63726,10.25708-7.63726,15.27425V352.304c0,4.65154,3.51308,10.18278,7.63726,10.18278,5.29592,0,10.46668-9.64856,11.75489-14.97534,1.38576-5.72655,5.73911-16.745,6.065-20.66461,3.7967.31591,6.36437.91514,6.36437,5.09147,0,24.11525-17.89406,27.59762-19.09281,42.004-5.23034-.43506-2.84313-1.27261-7.63724-1.27261-2.33536,0-11.45556,10.99833-11.45556,12.72844v7.637c0,5.15933,1.37192,11.456,6.36408,11.456h2.54566c8.34594,0,11.9256-10.69442,15.29524-16.52657,6.25992-10.835,12.48941-11.39453,15.27725-16.54385,2.54394-4.69869,6.82828-16.98621,9.0569-22.76449,2.55066-6.613,11.28508-16.18738,11.28508-21.80935V324.301c0-9.829-14.69344-15.90533-22.7069-17.787l3.6141-26.76293c1.35634-8.45981-13.76643-10.18278-19.0928-10.18278-4.624,0-4.4648,1.50994-8.91017,2.5458v-3.8187c0-19.39585-13.68458-34.51936-22.56274-46.17121-7.86058-10.31537-7.34236-9.5494-9.32606-25.04139-.98586-7.69756-6.29695-13.97663-6.29695-29.343h7.63726c9.03376,0,39.21405,24.18441,40.73113,24.18441h1.27319c9.71887,0,14.00134-9.00961,14.00134-19.09294v-2.54566c0-3.20533-19.38085-24.559-22.12025-31.34-3.2019-7.92688,1.105-14.09293-4.36021-22.36943-2.84568-4.30906-9.98318-9.84931-11.70515-16.29754,3.96458-1.05858,10.18264-13.511,10.18264-17.82033l-.52136-4.4778L674.32245,93.55174q-11.04676-3.59775-22.87765,4.181c-4.64682,0-9.93946-8.75872-15.27452-10.18292v14.00162c0,4.58139-11.894,9.10677-15.27425,11.45554-5.01588,2.654-9.13648,2.871-13.08906,7.27664-3.7044,4.12989-5.1806,8.756-10.84388,10.79445-6.67112,2.40221-8.57383.21574-14.59043,5.77556-3.34206,3.08774-7.8953,7.9746-13.66358,7.9746h-3.8187c1.38363,5.18062,9.14506,6.228,15.27424,6.36436-5.59625,7.63827-16.18737,4.017-23.93108,11.709-6.91687,6.87029-4.23791,22.658-12.98176,22.658-4.74527,0-6.19892.12259-10.18264-2.54566.64523,7.75357,8.44881,8.91016,16.54714,8.91016,4.38807,0,4.92815-.94171,8.90974-1.2729-3.76913,5.62911-5.61811,7.16848-8.18335,14.72817-3.43893,10.1342-5.662,7.84986-9.63655,13.27452l6.39122.04114,5.98345-3.87828-.252,25.53418-12.72315,6.37436a13.67109,13.67109,0,0,0,10.78344,5.023h2.54552c3.16532,0,4.78684-3.18247,7.63726-5.09146,0,7.86615-4.3162,14.98048-10.18278,16.547v2.5458c9.89631-.22046,9.30551-7.31636,15.27424-8.91017-.28516,12.80974-7.67412,22.89294-15.61884,28.93125-4.90917,3.731-22.4839,17.73389-27.65835,18.16453-5.04619,19.02622,35.10328,84.00862,54.73273,84.00862C608.69981,387.944,647.2089,353.45333,664.17324,328.11976Z" transform="translate(-350.40914 -7.65538)"/>
  </g>
</svg>
