<?xml version="1.0" standalone="no"?>
<!DOCTYPE svg PUBLIC "-//W3C//DTD SVG 20010904//EN"
 "http://www.w3.org/TR/2001/REC-SVG-20010904/DTD/svg10.dtd">
<svg version="1.0" xmlns="http://www.w3.org/2000/svg"
 width="512.000000pt" height="512.000000pt" viewBox="0 0 512.000000 512.000000"
 preserveAspectRatio="xMidYMid meet">

<g transform="translate(0.000000,512.000000) scale(0.100000,-0.100000)"
fill="#000000" stroke="none">
<path d="M516 4969 c-166 -39 -326 -201 -365 -369 -15 -63 -15 -4017 0 -4080
39 -170 199 -330 369 -369 62 -15 3108 -15 3170 0 122 28 255 128 317 239 67
118 66 115 70 660 l4 495 408 410 c332 334 412 420 435 466 94 192 71 402 -60
563 -92 114 -228 176 -384 176 -142 0 -247 -42 -355 -141 l-45 -42 0 450 c0
448 0 450 -22 491 -13 23 -245 260 -540 551 l-516 511 -1224 -1 c-704 -1
-1240 -5 -1262 -10z m2344 -456 c0 -367 19 -446 136 -573 64 -68 127 -111 210
-142 55 -20 80 -22 362 -26 l302 -4 0 -501 0 -502 -661 -660 c-363 -363 -666
-671 -673 -685 -21 -39 -226 -801 -226 -839 0 -43 46 -91 89 -91 17 0 194 45
393 99 200 54 383 104 408 111 40 10 78 45 358 323 l312 312 0 -376 c0 -440 0
-440 -89 -530 -98 -97 59 -89 -1680 -89 l-1526 0 -55 26 c-73 34 -116 76 -151
149 l-29 60 0 1980 c0 2256 -9 2036 90 2135 96 96 -13 88 1288 89 l1142 1 0
-267z m860 -536 c0 -5 -93 -7 -207 -5 -199 3 -210 4 -263 29 -78 37 -114 71
-149 141 l-31 61 0 216 0 216 325 -325 c179 -179 325 -329 325 -333z m885
-1046 c63 -28 109 -72 143 -136 23 -43 27 -62 27 -135 0 -73 -4 -92 -27 -135
-14 -27 -49 -72 -77 -100 l-51 -50 -213 213 -212 213 65 62 c80 76 135 99 230
93 39 -2 86 -12 115 -25z m-340 -491 l210 -210 -643 -643 -642 -642 -212 213
-213 212 640 640 c352 352 642 640 645 640 3 0 100 -95 215 -210z m-1275
-1581 c0 -9 -420 -123 -427 -116 -3 4 20 104 52 222 l59 216 158 -158 c87 -87
158 -161 158 -164z"/>
<path d="M604 4370 c-12 -4 -31 -21 -43 -36 -20 -26 -21 -35 -21 -361 l0 -335
34 -34 35 -35 340 3 341 3 27 28 28 27 0 345 0 345 -28 27 -27 28 -333 2
c-182 1 -342 -2 -353 -7z m541 -395 l0 -200 -202 -3 -203 -2 0 205 0 205 203
-2 202 -3 0 -200z"/>
<path d="M1614 4270 c-12 -4 -31 -21 -44 -37 -29 -37 -23 -98 15 -130 l26 -23
495 0 496 0 29 29 c40 40 40 89 0 133 l-29 33 -484 2 c-266 1 -493 -2 -504 -7z"/>
<path d="M1585 3847 c-17 -14 -28 -36 -32 -63 -5 -36 -1 -46 25 -75 l30 -34
345 0 345 0 25 23 c32 30 41 65 27 107 -21 65 -22 65 -399 65 -338 0 -340 0
-366 -23z"/>
<path d="M604 3256 c-64 -28 -64 -26 -64 -389 0 -356 2 -371 55 -395 18 -9
121 -12 355 -12 l330 0 32 29 33 29 3 331 c3 370 2 380 -63 407 -49 20 -635
20 -681 0z m546 -396 l0 -200 -205 0 -205 0 0 200 0 200 205 0 205 0 0 -200z"/>
<path d="M1624 3159 c-42 -12 -65 -40 -71 -87 -4 -33 -1 -44 25 -73 l30 -34
497 0 497 0 29 33 c53 59 29 140 -49 162 -46 12 -914 12 -958 -1z"/>
<path d="M1601 2746 c-47 -26 -63 -84 -37 -135 26 -49 42 -51 396 -51 l330 0
32 29 c27 24 33 36 33 71 0 35 -6 47 -33 71 l-32 29 -333 0 c-256 -1 -337 -4
-356 -14z"/>
<path d="M573 2126 l-28 -24 0 -352 0 -352 28 -24 28 -24 340 0 c375 0 377 0
398 62 7 20 11 147 11 345 0 334 -3 358 -49 383 -13 6 -146 10 -360 10 l-340
0 -28 -24z m577 -376 l0 -200 -205 0 -205 0 0 200 0 200 205 0 205 0 0 -200z"/>
<path d="M1597 2039 c-23 -13 -47 -62 -47 -95 0 -16 12 -38 34 -60 l34 -34
481 0 c529 0 526 0 551 59 17 42 5 95 -27 121 -25 20 -37 20 -517 20 -315 0
-497 -4 -509 -11z"/>
<path d="M1584 1616 c-21 -21 -34 -44 -34 -60 0 -35 25 -83 49 -96 28 -15 672
-14 705 1 33 15 59 71 51 108 -3 16 -17 39 -31 52 l-26 24 -339 3 -340 3 -35
-35z"/>
</g>
</svg>
