<?xml version="1.0" standalone="no"?>
<!DOCTYPE svg PUBLIC "-//W3C//DTD SVG 20010904//EN"
 "http://www.w3.org/TR/2001/REC-SVG-20010904/DTD/svg10.dtd">
<svg version="1.0" xmlns="http://www.w3.org/2000/svg"
 width="512.000000pt" height="512.000000pt" viewBox="0 0 512.000000 512.000000"
 preserveAspectRatio="xMidYMid meet">

<g transform="translate(0.000000,512.000000) scale(0.100000,-0.100000)"
fill="#000000" stroke="none">
<path d="M2187 5099 c-210 -49 -367 -306 -328 -534 17 -94 45 -162 93 -225 70
-90 489 -497 531 -515 48 -20 124 -19 164 3 48 26 501 479 543 544 76 116 96
286 51 421 -93 275 -354 388 -623 270 l-58 -26 -52 23 c-111 48 -224 62 -321
39z m276 -188 c45 -22 91 -41 101 -41 10 0 40 13 66 29 90 55 205 75 281 49
130 -44 221 -200 204 -347 -13 -113 -43 -155 -298 -408 -174 -175 -239 -233
-257 -233 -18 0 -83 58 -257 233 -255 253 -285 295 -298 408 -13 112 50 259
133 311 63 40 94 48 170 44 63 -3 86 -9 155 -45z"/>
<path d="M1483 4630 c-135 -71 -276 -163 -304 -199 -22 -28 -19 -63 8 -93 30
-33 70 -22 182 51 58 38 150 92 204 121 128 69 149 99 106 154 -32 40 -68 34
-196 -34z"/>
<path d="M3441 4664 c-43 -55 -22 -85 106 -154 54 -29 146 -83 204 -121 114
-75 152 -85 184 -49 22 24 24 72 4 96 -23 29 -208 146 -316 202 -116 59 -152
65 -182 26z"/>
<path d="M4212 4200 c-231 -32 -442 -166 -566 -358 -92 -142 -129 -270 -128
-442 1 -312 169 -580 447 -715 133 -65 197 -79 350 -79 149 0 238 20 359 80
95 48 150 90 229 173 151 160 225 365 213 586 -7 125 -25 196 -81 310 -128
263 -381 431 -677 449 -46 2 -111 1 -146 -4z m273 -166 c209 -54 391 -231 457
-444 33 -107 33 -275 0 -375 -39 -116 -81 -184 -167 -271 -65 -65 -98 -90
-166 -122 -264 -127 -555 -78 -760 129 -118 120 -182 275 -182 449 -1 176 57
322 178 449 81 84 152 131 252 168 124 45 256 51 388 17z"/>
<path d="M4284 3798 c-32 -15 -44 -50 -44 -126 l0 -67 -156 -85 c-154 -84
-194 -115 -194 -151 0 -29 43 -71 73 -71 15 0 81 29 148 66 66 36 122 66 125
66 2 0 4 -53 4 -119 l0 -119 -30 -12 c-17 -7 -49 -26 -70 -41 -33 -24 -40 -35
-40 -62 0 -39 34 -77 70 -77 13 0 51 15 85 34 l61 35 62 -35 c86 -47 131 -43
153 13 16 43 -5 75 -76 117 l-65 38 0 114 c0 63 3 114 7 114 3 0 54 -27 114
-60 59 -33 118 -64 131 -69 35 -13 86 11 94 45 14 56 -2 72 -176 169 l-165 92
-5 82 c-4 72 -8 85 -29 102 -26 21 -45 23 -77 7z"/>
<path d="M362 4100 c-48 -29 -62 -72 -62 -188 l0 -99 -83 -5 c-102 -7 -150
-28 -185 -81 l-27 -41 -3 -465 c-3 -486 -1 -514 40 -566 46 -59 78 -65 351
-65 l248 0 24 25 c30 29 32 64 6 96 -19 24 -21 24 -268 29 l-248 5 -3 188 c-1
103 0 187 2 187 3 0 31 -7 63 -15 33 -9 101 -15 159 -15 l102 0 6 -31 c8 -43
40 -84 80 -103 48 -22 402 -24 445 -1 38 19 78 68 86 105 l7 30 102 0 c58 0
126 6 159 15 32 8 60 15 62 15 3 0 5 -80 5 -178 0 -125 -4 -182 -12 -190 -9
-9 -77 -12 -244 -12 -219 0 -233 -1 -258 -21 -34 -27 -36 -77 -3 -107 23 -21
30 -22 272 -22 233 0 251 1 293 21 26 13 54 38 70 62 l27 41 3 458 c2 301 -1
472 -8 498 -13 47 -51 95 -93 117 -17 8 -67 18 -114 21 l-83 5 0 95 c0 76 -4
104 -20 138 -36 74 -35 74 -477 74 -372 0 -389 -1 -421 -20z m768 -210 l0 -80
-340 0 -340 0 0 80 0 80 340 0 340 0 0 -80z m284 -243 c16 -12 18 -28 14 -163
-2 -124 -6 -154 -21 -176 -36 -53 -63 -62 -188 -66 l-117 -4 -7 33 c-4 19 -19
49 -32 68 -43 57 -71 63 -288 59 -178 -3 -196 -5 -222 -24 -38 -28 -73 -82
-73 -112 l0 -24 -118 3 c-131 4 -157 14 -192 72 -17 28 -20 51 -20 179 0 129
2 148 18 157 28 17 1223 15 1246 -2z m-464 -477 l0 -80 -160 0 -160 0 0 80 0
80 160 0 160 0 0 -80z"/>
<path d="M2411 3165 c-88 -20 -179 -65 -230 -113 -25 -23 -64 -48 -92 -57 -68
-23 -159 -85 -201 -136 -101 -125 -127 -269 -92 -509 8 -58 19 -195 23 -305 7
-186 10 -206 38 -287 41 -118 110 -225 215 -334 81 -83 88 -94 88 -131 l0 -40
-237 -73 c-131 -40 -264 -86 -295 -102 -79 -42 -161 -130 -203 -220 -58 -121
-65 -176 -65 -509 l0 -296 23 -21 c29 -27 67 -28 98 -3 l24 19 6 319 c5 295 7
322 27 377 35 94 76 148 144 192 33 21 438 154 469 154 8 0 23 -21 33 -47 38
-91 135 -162 266 -194 71 -17 220 -17 290 0 125 31 234 113 268 203 l17 45
220 -68 c121 -38 232 -69 247 -69 58 0 90 78 48 120 -17 17 -200 80 -437 150
l-73 22 0 50 c0 47 3 52 50 95 110 99 221 277 253 409 16 64 30 336 31 609 1
151 -2 178 -22 245 -40 128 -88 206 -182 300 -97 98 -195 154 -335 191 -105
28 -321 35 -414 14z m394 -165 c115 -37 185 -77 255 -149 108 -111 160 -244
160 -414 l0 -88 -27 18 c-92 63 -155 72 -469 73 -287 0 -344 7 -407 52 -59 42
-96 179 -82 307 14 130 56 179 184 213 93 25 287 19 386 -12z m-722 -227 c-7
-84 20 -225 57 -299 35 -67 33 -79 -12 -121 -28 -27 -154 -87 -166 -79 -14 9
-35 240 -29 313 8 88 47 166 105 210 24 18 45 33 47 33 2 0 1 -26 -2 -57z
m628 -482 c300 -1 337 -6 410 -57 71 -49 79 -73 79 -226 0 -148 -11 -196 -70
-307 -90 -169 -280 -323 -452 -367 -155 -40 -335 31 -498 195 -89 90 -134 157
-178 263 -23 56 -26 77 -27 191 l0 129 83 33 c103 41 149 71 202 132 l42 49
66 -17 c56 -15 114 -18 343 -18z m156 -1184 c-50 -119 -295 -162 -464 -81 -70
33 -93 72 -93 154 0 55 2 61 18 55 187 -79 321 -82 492 -11 l55 22 3 -52 c2
-30 -3 -67 -11 -87z"/>
<path d="M3665 848 c-25 -19 -27 -26 -21 -67 3 -25 12 -75 21 -111 11 -49 15
-131 15 -336 0 -259 1 -272 21 -298 27 -34 71 -35 105 -1 l26 26 -4 312 c-4
281 -7 319 -26 382 -31 106 -79 138 -137 93z"/>
<path d="M1830 550 c-19 -19 -20 -33 -20 -260 0 -227 1 -241 20 -260 25 -25
71 -26 101 -1 l24 19 0 242 0 242 -24 19 c-30 25 -76 24 -101 -1z"/>
<path d="M3251 544 c-20 -25 -21 -39 -21 -256 l0 -229 25 -24 c33 -34 77 -33
104 1 20 25 21 39 21 259 0 229 0 232 -23 253 -33 31 -80 29 -106 -4z"/>
</g>
</svg>
