<?xml version="1.0" standalone="no"?>
<!DOCTYPE svg PUBLIC "-//W3C//DTD SVG 20010904//EN"
 "http://www.w3.org/TR/2001/REC-SVG-20010904/DTD/svg10.dtd">
<svg version="1.0" xmlns="http://www.w3.org/2000/svg"
 width="512.000000pt" height="512.000000pt" viewBox="0 0 512.000000 512.000000"
 preserveAspectRatio="xMidYMid meet">

<g transform="translate(0.000000,512.000000) scale(0.100000,-0.100000)"
fill="#000000" stroke="none">
<path d="M1385 5100 c-243 -51 -433 -214 -510 -437 -41 -118 -47 -189 -43
-556 4 -339 4 -343 31 -422 34 -101 86 -190 160 -271 l58 -63 -16 -118 c-9
-65 -18 -127 -20 -138 -3 -11 -48 -56 -100 -100 -92 -77 -104 -84 -368 -200
-150 -66 -293 -132 -318 -147 -66 -39 -159 -143 -197 -220 -61 -125 -62 -131
-62 -906 l0 -704 29 -29 c36 -35 61 -37 98 -5 l28 24 5 729 c5 666 7 732 23
773 27 69 84 146 136 184 40 30 198 103 461 215 l67 29 94 -296 c52 -163 102
-305 111 -314 39 -40 76 -25 239 93 85 62 164 118 176 127 l23 14 0 -265 0
-266 -47 -21 c-62 -27 -137 -101 -162 -159 -15 -35 -201 -1038 -201 -1084 0
-4 -179 -7 -398 -7 -348 0 -400 -2 -420 -16 -45 -31 -45 -53 -2 -227 50 -201
53 -209 101 -251 77 -70 1 -67 1440 -64 l1294 3 55 26 c69 33 136 99 167 166
18 38 52 215 138 705 63 359 115 676 115 703 0 65 -37 144 -83 180 -54 40
-117 55 -236 55 l-106 0 0 213 c0 241 -11 296 -82 416 -81 136 -154 182 -582
367 -171 74 -189 84 -275 158 -50 43 -94 84 -98 90 -3 6 -14 70 -23 141 l-17
130 56 59 c100 104 165 237 186 383 13 92 13 623 -1 719 -43 311 -260 534
-573 589 -116 20 -240 18 -351 -5z m385 -165 c244 -74 390 -277 390 -545 l0
-58 -50 -11 c-84 -18 -229 -14 -303 9 -128 40 -233 131 -302 262 -27 50 -43
70 -62 74 -46 12 -75 -7 -111 -71 -68 -122 -126 -160 -244 -160 -43 0 -82 5
-88 11 -16 16 13 142 49 220 67 144 218 252 396 284 72 13 260 4 325 -15z
m-315 -556 c68 -93 215 -185 343 -215 73 -18 237 -21 315 -6 l47 9 0 -156 c0
-281 -38 -382 -203 -536 -74 -69 -123 -106 -176 -133 -75 -37 -75 -37 -206
-37 -131 0 -131 0 -206 37 -106 53 -262 201 -313 297 -55 106 -66 172 -66 421
l0 215 108 0 c101 0 111 2 172 32 36 18 83 50 105 72 21 23 42 41 45 41 3 0
19 -19 35 -41z m-167 -1178 c158 -80 401 -80 568 -2 35 16 66 26 68 22 3 -4 8
-41 12 -83 l7 -76 -158 -178 c-87 -99 -170 -192 -185 -207 l-26 -28 -110 123
c-60 68 -144 161 -185 208 l-75 85 9 83 c6 45 12 82 14 82 2 0 30 -13 61 -29z
m845 -354 l29 -24 -78 -244 c-42 -134 -80 -247 -83 -252 -10 -10 -296 201
-295 217 1 8 75 97 165 198 l164 185 35 -29 c19 -15 48 -38 63 -51z m-848
-114 c91 -102 164 -190 163 -194 -6 -16 -292 -219 -299 -211 -7 7 -159 478
-159 491 0 9 110 101 120 101 5 0 83 -84 175 -187z m1335 -132 c174 -76 230
-112 286 -184 66 -85 78 -136 82 -369 l4 -208 -671 0 -671 0 0 260 c0 143 4
260 8 260 5 0 87 -56 182 -125 240 -174 247 -173 318 50 22 72 64 203 92 292
l51 162 77 -33 c42 -19 151 -66 242 -105z m764 -942 c19 -15 26 -30 26 -54 0
-45 -218 -1292 -232 -1328 -17 -43 -46 -76 -89 -97 -37 -19 -62 -20 -931 -20
-700 0 -898 3 -918 13 -14 7 -31 26 -39 42 -16 33 -26 -35 120 805 90 516 105
584 137 613 54 49 14 47 988 47 907 0 911 0 938 -21z m-2346 -1311 c-6 -29 -8
-83 -5 -120 l4 -68 -263 0 c-179 0 -271 4 -289 12 -16 7 -28 24 -34 47 -29
109 -41 160 -41 170 0 8 93 11 319 11 l318 0 -9 -52z"/>
<path d="M2342 977 c-47 -50 -15 -131 51 -131 60 0 95 48 76 104 -19 54 -88
69 -127 27z"/>
<path d="M3199 4745 c-193 -26 -363 -81 -552 -178 -143 -73 -167 -94 -167
-142 0 -72 75 -102 140 -55 60 42 340 171 340 155 0 -2 -22 -33 -49 -69 -58
-76 -122 -183 -158 -264 -14 -32 -27 -58 -28 -60 -2 -2 -26 8 -54 22 -28 14
-60 26 -71 26 -29 0 -70 -44 -70 -75 0 -41 16 -61 75 -95 30 -17 55 -36 55
-41 0 -6 -11 -49 -24 -97 -58 -204 -92 -431 -103 -674 -5 -125 -4 -150 10
-171 32 -49 115 -42 135 11 6 15 13 92 16 172 6 147 34 367 62 488 14 62 54
204 58 209 1 1 42 -11 91 -28 110 -36 261 -68 366 -76 l79 -6 0 -323 0 -324
-203 0 -204 0 -23 -25 c-32 -34 -30 -83 5 -112 25 -22 33 -23 226 -23 l199 0
0 -428 c0 -416 1 -429 20 -450 47 -50 114 -31 135 38 l10 33 75 -6 c121 -10
380 -73 395 -97 7 -12 -86 -190 -136 -260 -26 -36 -67 -88 -93 -116 -34 -39
-46 -60 -46 -83 0 -39 39 -81 75 -81 58 0 197 168 292 354 30 61 57 113 60
115 5 6 47 -18 152 -87 l84 -55 -24 -19 c-13 -11 -67 -47 -121 -80 -132 -81
-153 -114 -107 -172 32 -40 73 -35 172 23 352 208 633 565 752 956 88 288 97
624 24 910 -107 419 -387 801 -751 1023 -335 205 -734 289 -1119 237z m151
-471 l0 -317 -75 6 c-119 10 -370 71 -398 97 -10 9 59 149 121 245 63 99 183
215 263 253 35 17 70 32 77 32 9 0 12 -70 12 -316z m260 278 c70 -34 191 -153
255 -252 56 -87 127 -232 117 -241 -27 -25 -274 -84 -394 -95 l-78 -7 0 317 0
317 23 -6 c12 -4 47 -19 77 -33z m356 -48 c99 -37 250 -117 334 -175 l71 -50
-25 -20 c-35 -27 -197 -129 -206 -129 -4 0 -18 24 -30 53 -33 77 -124 229
-175 292 -25 30 -43 55 -41 55 2 0 35 -12 72 -26z m710 -546 c150 -208 245
-465 279 -755 l6 -53 -315 0 -314 0 -7 98 c-15 223 -55 464 -108 647 l-23 80
86 50 c47 28 114 72 150 99 l65 47 62 -68 c35 -37 88 -103 119 -145z m-607
-127 c51 -189 81 -372 96 -583 l7 -98 -331 0 -331 0 0 325 0 325 44 0 c76 0
270 38 378 74 56 19 106 35 109 35 4 1 16 -35 28 -78z m97 -933 c-16 -216 -46
-401 -96 -588 l-21 -77 -106 33 c-119 38 -232 61 -349 72 l-79 7 -3 323 -2
322 331 0 331 0 -6 -92z m790 55 c-3 -21 -8 -63 -12 -93 -30 -263 -161 -554
-349 -780 -103 -123 -87 -119 -185 -49 -46 33 -114 77 -150 96 -36 20 -66 37
-67 38 -1 0 8 34 22 76 50 160 95 422 110 652 l7 97 315 0 315 0 -6 -37z"/>
<path d="M665 1619 c-45 -26 -45 -24 -45 -420 0 -208 3 -385 6 -394 10 -24 60
-46 89 -39 14 3 34 18 45 31 19 25 20 42 20 399 0 373 0 373 -22 398 -27 30
-65 40 -93 25z"/>
</g>
</svg>
